<svg xmlns="http://www.w3.org/2000/svg" viewBox="0 0 512 512"><path d="M440.675 73.457h-.152c-11.019.031-20.223 7.609-27.619 13.698l-.098.081-.1-.082c-7.414-6.036-16.638-13.543-27.628-13.543h-.066c-29.771.083-53.924 24.372-53.841 54.143.022 8.064 4.17 22.422 39.777 53.87 18.655 16.475 36.983 29.673 37.754 30.226a7.593 7.593 0 004.436 1.427 7.596 7.596 0 004.468-1.451c.768-.559 19.021-13.857 37.584-30.437 35.43-31.647 39.498-46.027 39.476-54.092-.083-29.718-24.289-53.84-53.991-53.84zm4.468 96.515c-12.67 11.324-25.49 21.285-32.032 26.235-6.569-4.913-19.444-14.802-32.178-26.055-32.032-28.306-34.546-39.64-34.554-42.44-.06-21.385 17.29-38.833 38.676-38.893h.024c5.582 0 12.194 5.382 18.026 10.13 1.794 1.46 3.489 2.839 5.191 4.105a7.605 7.605 0 009.109-.025c1.695-1.275 3.381-2.663 5.167-4.134 5.815-4.788 12.407-10.215 17.995-10.231h.109c21.335 0 38.723 17.328 38.783 38.676.007 2.799-2.443 14.147-34.316 42.632z"/><path d="M504.396 253.07h-175.51c-9.314 0-17.728 5.874-20.938 14.619l-16.249 44.267L278.132 131.7c-.801-10.648-9.082-19.262-19.69-20.484-10.607-1.217-20.631 5.286-23.831 15.474l-39.703 126.382H7.604A7.605 7.605 0 000 260.676v29.402a7.605 7.605 0 007.604 7.604h203.678c9.793 0 18.345-6.277 21.28-15.62l9.805-31.211 12.574 167.061c.783 10.393 8.843 18.981 19.166 20.417 1.02.142 2.058.214 3.084.214 9.309 0 17.72-5.875 20.929-14.62l46.342-126.243h159.935a7.605 7.605 0 007.604-7.604v-29.402a7.606 7.606 0 00-7.605-7.604zm-7.604 29.401H339.154c-3.19 0-6.04 1.99-7.139 4.984l-48.171 131.227c-1.135 3.09-4.336 5.042-7.641 4.584-3.285-.457-5.85-3.19-6.098-6.497L254.559 210.23a7.602 7.602 0 00-7.588-7.034 7.605 7.605 0 00-7.25 5.326l-21.67 68.98a7.068 7.068 0 01-6.771 4.97H15.208v-14.194H200.49a7.602 7.602 0 007.254-5.325l41.376-131.707a7.104 7.104 0 017.583-4.923 7.107 7.107 0 016.265 6.518l16.201 215.236a7.605 7.605 0 0014.721 2.049l28.337-77.197a7.123 7.123 0 016.662-4.652h167.904v14.194z"/></svg>