<svg xmlns="http://www.w3.org/2000/svg" viewBox="0 0 512 512"><path d="M441.279 170.211L351.803 7.486A14.443 14.443 0 00339.144 0H172.856a14.445 14.445 0 00-12.659 7.486L70.721 170.211a14.456 14.456 0 00-1.436 10.13l72.036 320.381A14.446 14.446 0 00155.415 512h201.168a14.445 14.445 0 0014.094-11.278l72.036-320.381a14.444 14.444 0 00-1.434-10.13zm-96.254 312.896h-178.05l-10.11-44.962H280.59c7.979 0 14.446-6.469 14.446-14.446 0-7.977-6.468-14.446-14.446-14.446H150.37L98.675 179.34l82.723-150.447H330.6l24.722 44.962H231.409c-7.979 0-14.446 6.469-14.446 14.446 0 7.977 6.468 14.446 14.446 14.446h139.8l42.114 76.592-68.298 303.768z"/><path d="M338.689 191.319h-38.641V151.32c0-7.977-6.468-14.446-14.446-14.446H226.4c-7.979 0-14.446 6.469-14.446 14.446v39.999h-38.641c-7.979 0-14.446 6.469-14.446 14.446v59.202c0 7.977 6.468 14.446 14.446 14.446h38.641v81.269c0 7.977 6.468 14.446 14.446 14.446h59.202c7.979 0 14.446-6.469 14.446-14.446v-81.269h38.641c7.979 0 14.446-6.469 14.446-14.446v-59.202c0-7.978-6.467-14.446-14.446-14.446zm-14.447 59.201h-38.641c-7.979 0-14.446 6.469-14.446 14.446v81.269h-30.309v-81.269c0-7.977-6.468-14.446-14.446-14.446h-38.641v-30.309H226.4c7.979 0 14.446-6.469 14.446-14.446v-39.999h30.309v39.999c0 7.977 6.468 14.446 14.446 14.446h38.641v30.309zM338.085 420.876a13.536 13.536 0 00-.823-2.7 14.193 14.193 0 00-1.315-2.499 14.699 14.699 0 00-1.806-2.196 13.851 13.851 0 00-2.196-1.791 14.711 14.711 0 00-2.485-1.329 15.395 15.395 0 00-2.701-.823 14.286 14.286 0 00-5.649 0 14.658 14.658 0 00-5.2 2.152 13.851 13.851 0 00-2.196 1.791 13.796 13.796 0 00-1.791 2.196c-.52.78-.968 1.618-1.329 2.499-.361.867-.636 1.777-.823 2.701s-.289 1.878-.289 2.817c0 .938.101 1.892.289 2.831.188.91.462 1.82.823 2.701a14.64 14.64 0 001.329 2.485c.52.795 1.127 1.531 1.791 2.196.665.68 1.401 1.271 2.196 1.806.78.52 1.618.968 2.499 1.329.867.361 1.777.636 2.701.823.925.188 1.878.275 2.817.275 3.799 0 7.527-1.533 10.214-4.234a13.796 13.796 0 001.791-2.196c.52-.78.968-1.618 1.329-2.485.361-.881.65-1.791.823-2.701.188-.939.289-1.894.289-2.831a14.13 14.13 0 00-.288-2.817zM198.287 78.092a13.941 13.941 0 00-2.196-1.806 14.705 14.705 0 00-5.2-2.152 14.211 14.211 0 00-5.634 0 15.17 15.17 0 00-2.716.823c-.867.361-1.705.81-2.485 1.329a13.886 13.886 0 00-2.196 1.806 15.44 15.44 0 00-1.806 2.181 15.49 15.49 0 00-1.315 2.499c-.361.865-.65 1.775-.823 2.701a14.468 14.468 0 00-.289 2.831c0 .938.101 1.893.289 2.817.173.925.462 1.835.823 2.701.361.88.795 1.718 1.315 2.498a14.718 14.718 0 001.806 2.197 13.736 13.736 0 002.196 1.79c.78.52 1.618.968 2.485 1.329.881.361 1.791.636 2.716.823s1.878.289 2.817.289c.939 0 1.892-.101 2.817-.289a14.582 14.582 0 002.701-.823 14.254 14.254 0 002.499-1.329c.795-.519 1.531-1.125 2.196-1.79s1.271-1.403 1.791-2.197c.52-.78.968-1.618 1.329-2.498.361-.868.636-1.777.823-2.701.188-.926.289-1.879.289-2.817 0-3.812-1.545-7.525-4.232-10.212z"/></svg>