<svg xmlns="http://www.w3.org/2000/svg" viewBox="0 0 49.267 49.267"><path d="M31.261 22.368L43.099 10.53v12.602c0 .851.345 1.623.903 2.181s1.33.904 2.181.903a3.085 3.085 0 003.085-3.085V3.084A3.085 3.085 0 0046.183 0H26.135a3.085 3.085 0 00-.001 6.169h12.602L26.899 18.006c-6.682-4.621-15.938-3.964-21.882 1.981-6.689 6.689-6.689 17.574 0 24.263s17.574 6.689 24.263 0c5.945-5.944 6.602-15.2 1.981-21.882zM9.379 39.888c-4.284-4.284-4.284-11.255 0-15.54s11.255-4.284 15.54 0 4.284 11.255 0 15.54-11.256 4.285-15.54 0z"/></svg>