<svg version="1.0" xmlns="http://www.w3.org/2000/svg" width="981.333" height="1706.667" viewBox="0 0 736 1280"><path d="M413 1.1c-75.2 5.5-150.7 30.8-214.8 72.1C127 119.1 67.8 183.4 22.1 264.4 5 294.8.6 307.9.6 327.5c0 10.6.3 12.8 2.7 18.9 6.5 16.7 19.7 27.2 39.2 31.2 14.7 3.1 35.6.3 50.5-6.7 8.6-4 9.7-5.1 13.7-13.9 47.9-105 116.6-178.7 194.7-208.9 60.7-23.4 123.7-19.2 170.2 11.5 11 7.2 28.3 24.3 35.1 34.4 20.9 31.2 25.8 67.6 14.5 106.5-3.8 12.8-6 18.4-12.9 31.9-12.1 23.6-27.6 44-51.8 68.1-32.7 32.6-66.8 57.1-127.5 91.5-29.1 16.5-48.1 30.3-67.4 49-19.1 18.5-31.2 34.8-42.1 56.5-14.1 28-20.7 54.9-22.4 91.9-3.1 65.5 12.1 141.4 57.1 286.1 22.3 71.9 25.5 81.1 29.7 87.4 18.1 26.6 40.4 45.2 56.3 46.8 16.3 1.7 27.9-9.7 32.8-32.3 3.4-15.9 3-21.5-2.8-39.9-18.8-59.1-34-122-40.7-168.2-4.4-30.7-5-39.8-5-70.8.1-32 1-42.5 6-64.5 9.9-44 32.6-81.5 68.7-113.7 16.4-14.6 27.3-22.6 59.8-44.1 46.3-30.6 69.1-47 98.1-70.4C651.5 429.7 709.9 351.6 729 276c12.4-49.2 8.1-94.1-13.1-136.9-17.8-36.1-49-68.3-88.8-92-39.6-23.6-86.4-38.5-139.6-44.7C471.4.6 429.8-.2 413 1.1zm-38.3 1193c-10.5 2.5-23.7 12.1-29 21.2-9.8 16.6-6.5 38.1 7.8 51.6 23.2 22 62.3 15 75.8-13.6 2.9-6.3 3.2-7.6 3.2-16.8-.1-13.3-2.4-19.2-11.1-28.5-6.7-7.1-14.9-12-23.4-13.9-5.4-1.3-18-1.2-23.3 0z"/></svg>